<svg xmlns:x="http://ns.adobe.com/Extensibility/1.0/" xmlns:i="http://ns.adobe.com/AdobeIllustrator/10.0/" xmlns:graph="http://ns.adobe.com/Graphs/1.0/" xmlns="http://www.w3.org/2000/svg" xmlns:xlink="http://www.w3.org/1999/xlink" xmlns:a="http://ns.adobe.com/AdobeSVGViewerExtensions/3.0/" version="1.1" x="0px" y="0px" viewBox="0 0 100 125" enable-background="new 0 0 100 100" xml:space="preserve">
    <g>
        <rect x="71.5" y="66.8" width="4" height="18.3" />
        <rect x="55.9" y="66.8" width="4" height="18.3" />
        <rect x="30.4" y="66.8" width="3" height="18.3" />
        <rect x="38" y="66.8" width="4" height="18.3" />
        <rect x="46.1" y="66.8" width="6" height="18.3" />
        <rect x="62" y="66.8" width="6" height="18.3" />
        <rect x="24.6" y="66.8" width="2" height="18.3" />
        <g>
            <path d="M85,5v90H15V5H85 M20,10v80h60V10H20z" />
        </g>
    </g>
    <g display="none">
        <path display="inline" d="M50.4,25c-1.7,0-10,14.4-10,19.9c0,5.6,4.5,10.1,10,10.1c5.5,0,10-4.5,10-10.1C60.4,39.4,52.1,25,50.4,25   z M42.3,42.7c0,0,0.2-0.8,1.2-0.7c0.9,0.1,0.8,1,0.8,1s-0.1,0.9,0,1.3c0,0-0.1,0.6-1,0.6c-1,0-1-0.7-1-0.7   C42.2,43.7,42.3,43.2,42.3,42.7z M50.3,53.6c-2.3-0.2-4.6-1.3-6.2-3.3c-0.9-1.2-1.5-2.5-1.8-3.9c0,0,0-0.8,1-0.8c0.9,0,1,0.7,1,0.7   c0.2,1,0.7,1.9,1.3,2.7c1.2,1.5,2.9,2.4,4.7,2.6c0,0,0.8,0.1,0.8,0.9C51.2,53.6,50.3,53.6,50.3,53.6z" />
    </g>
    <g>
        <polygon points="60,39 51.1,39 59.8,25 40,41 48.9,41 40.2,55  " />
    </g>
    <text x="0" y="115" fill="#000000" font-size="5px" font-weight="bold" font-family="'Helvetica Neue', Helvetica, Arial-Unicode, Arial, Sans-serif">Created by Hans Paul Mösl Junior</text>
    <text x="0" y="120" fill="#000000" font-size="5px" font-weight="bold" font-family="'Helvetica Neue', Helvetica, Arial-Unicode, Arial, Sans-serif">from the Noun Project</text>
</svg>
