<?xml version="1.0" encoding="UTF-8" standalone="no"?>
<svg
   xmlns:dc="http://purl.org/dc/elements/1.1/"
   xmlns:cc="http://creativecommons.org/ns#"
   xmlns:rdf="http://www.w3.org/1999/02/22-rdf-syntax-ns#"
   xmlns:svg="http://www.w3.org/2000/svg"
   xmlns="http://www.w3.org/2000/svg"
   xmlns:sodipodi="http://sodipodi.sourceforge.net/DTD/sodipodi-0.dtd"
   xmlns:inkscape="http://www.inkscape.org/namespaces/inkscape"
   version="1.1"
   x="0px"
   y="0px"
   viewBox="0 0 23.349 28.553335"
   enable-background="new 0 0 100 100"
   xml:space="preserve"
   id="rentImg"
   inkscape:version="0.48.4 r9939"
   width="100%"
   height="100%"
   sodipodi:docname="rent1.svg"><metadata
     id="metadata16"><rdf:RDF><cc:Work
         rdf:about=""><dc:format>image/svg+xml</dc:format><dc:type
           rdf:resource="http://purl.org/dc/dcmitype/StillImage" /><dc:title></dc:title></cc:Work></rdf:RDF></metadata><defs
     id="defs14" /><sodipodi:namedview
     pagecolor="#ffffff"
     bordercolor="#666666"
     borderopacity="1"
     objecttolerance="10"
     gridtolerance="10"
     guidetolerance="10"
     inkscape:pageopacity="0"
     inkscape:pageshadow="2"
     inkscape:window-width="1366"
     inkscape:window-height="744"
     id="namedview12"
     showgrid="false"
     inkscape:zoom="1.0883917"
     inkscape:cx="49.93"
     inkscape:cy="58.589866"
     inkscape:window-x="0"
     inkscape:window-y="24"
     inkscape:window-maximized="1"
     inkscape:current-layer="svg2"
     fit-margin-top="0"
     fit-margin-left="0"
     fit-margin-right="0"
     fit-margin-bottom="0" /><path
     d="M 3.0572829,8.608599 H 4.2870827 V 7.378802 c 1.0084349,0 1.8447142,-0.836259 1.8447142,-1.844698 0,-1.008433 -0.8362793,-1.844697 -1.8447142,-1.844697 H 3.0572829 c -0.3443402,0 -0.6148985,-0.270555 -0.6148985,-0.614907 0,-0.34434 0.2705583,-0.614898 0.6148985,-0.614898 H 4.2870827 6.1317969 V 1.229801 H 4.2870827 V 0 H 3.0572829 v 1.229801 c -1.0084355,0 -1.8446991,0.836265 -1.8446991,1.844699 0,1.008436 0.8362636,1.844706 1.8446991,1.844706 h 1.2297998 c 0.3443437,0 0.6149079,0.270555 0.6149079,0.614898 0,0.344349 -0.2705642,0.614898 -0.6149079,0.614898 H 3.0572829 1.2125838 v 1.2298 h 1.8446991 v 1.229797 z"
     id="path4"
     inkscape:connector-curvature="0"
     style="fill:#000000" /><polygon
     points="95,95 95,5 50,5 50,15 55,15 55,10 90,10 90,45 70,45 70,50 90,50 90,70 85,70 85,75 90,75 90,90 55,90 55,75 75,75 75,70 55,70 55,65 50,65 50,90 17.5,90 17.5,50 50,50 50,55 55,55 55,50 60,50 60,45 55,45 55,26.5 45,16.5 41.5,20 50,28.5 50,45 12.5,45 12.5,95 "
     id="polygon6"
     transform="matrix(0.24596018,0,0,0.24596018,-0.01721717,-1.229797)"
     style="fill:#000000" /><text
     x="-0.017217193"
     y="27.055662"
     font-size="5px"
     font-weight="bold"
     id="text8"
     style="font-size:1.22979951px;font-weight:bold;fill:#000000;font-family:'\'Helvetica Neue\', Helvetica, Arial-Unicode, Arial, Sans-serif'">Created by Arthur Shlain</text>
<text
     x="-0.017217193"
     y="28.285238"
     font-size="5px"
     font-weight="bold"
     id="text10"
     style="font-size:1.22979951px;font-weight:bold;fill:#000000;font-family:'\'Helvetica Neue\', Helvetica, Arial-Unicode, Arial, Sans-serif'">from the Noun Project</text>
<path
     id="path2993"
     d="M 3.0572829,8.608599 H 4.2870827 V 7.378802 c 1.0084349,0 1.8447142,-0.836259 1.8447142,-1.844698 0,-1.008433 -0.8362793,-1.844697 -1.8447142,-1.844697 H 3.0572829 c -0.3443402,0 -0.6148985,-0.270555 -0.6148985,-0.614907 0,-0.34434 0.2705583,-0.614898 0.6148985,-0.614898 H 4.2870827 6.1317969 V 1.229801 H 4.2870827 V 0 H 3.0572829 v 1.229801 c -1.0084355,0 -1.8446991,0.836265 -1.8446991,1.844699 0,1.008436 0.8362636,1.844706 1.8446991,1.844706 h 1.2297998 c 0.3443437,0 0.6149079,0.270555 0.6149079,0.614898 0,0.344349 -0.2705642,0.614898 -0.6149079,0.614898 H 3.0572829 1.2125838 v 1.2298 h 1.8446991 v 1.229797 z"
     inkscape:connector-curvature="0"
     style="fill:#000000" /><polygon
     id="polygon2995"
     points="95,95 95,5 50,5 50,15 55,15 55,10 90,10 90,45 70,45 70,50 90,50 90,70 85,70 85,75 90,75 90,90 55,90 55,75 75,75 75,70 55,70 55,65 50,65 50,90 17.5,90 17.5,50 50,50 50,55 55,55 55,50 60,50 60,45 55,45 55,26.5 45,16.5 41.5,20 50,28.5 50,45 12.5,45 12.5,95 "
     transform="matrix(0.24596018,0,0,0.24596018,-0.01721717,-1.229797)"
     style="fill:#000000" /><text
     id="text2997"
     font-weight="bold"
     font-size="5px"
     y="27.055662"
     x="-0.017217193"
     style="font-size:1.22979951px;font-weight:bold;fill:#000000;font-family:'\'Helvetica Neue\', Helvetica, Arial-Unicode, Arial, Sans-serif'">Created by Arthur Shlain</text>
<text
     id="text2999"
     font-weight="bold"
     font-size="5px"
     y="28.285238"
     x="-0.017217193"
     style="font-size:1.22979951px;font-weight:bold;fill:#000000;font-family:'\'Helvetica Neue\', Helvetica, Arial-Unicode, Arial, Sans-serif'">from the Noun Project</text>
</svg>