<svg xmlns="http://www.w3.org/2000/svg" xmlns:xlink="http://www.w3.org/1999/xlink" version="1.1" x="0px" y="0px" viewBox="0 0 100 125" enable-background="new 0 0 100 100" xml:space="preserve">
    <path fill="#000000" d="M12.5,40h5v-5c4.1,0,7.5-3.4,7.5-7.5S21.6,20,17.5,20h-5c-1.4,0-2.5-1.1-2.5-2.5s1.1-2.5,2.5-2.5h5H25v-5  h-7.5V5h-5v5C8.4,10,5,13.4,5,17.5S8.4,25,12.5,25h5c1.4,0,2.5,1.1,2.5,2.5S18.9,30,17.5,30h-5H5v5h7.5V40z" />
    <polygon fill="#000000" points="50,15 55,15 55,10 90,10 90,45 70,45 70,50 90,50 90,70 85,70 85,75 90,75 90,90 55,90 55,75 75,75   75,70 55,70 55,65 50,65 50,90 17.5,90 17.5,50 50,50 50,55 55,55 55,50 60,50 60,45 55,45 55,26.5 45,16.5 41.5,20 50,28.5 50,45   12.5,45 12.5,95 95,95 95,5 50,5 " />
    <text x="0" y="115" fill="#000000" font-size="5px" font-weight="bold" font-family="'Helvetica Neue', Helvetica, Arial-Unicode, Arial, Sans-serif">Created by Arthur Shlain</text>
    <text x="0" y="120" fill="#000000" font-size="5px" font-weight="bold" font-family="'Helvetica Neue', Helvetica, Arial-Unicode, Arial, Sans-serif">from the Noun Project</text>
</svg>
