<svg xmlns="http://www.w3.org/2000/svg" xmlns:xlink="http://www.w3.org/1999/xlink" version="1.1" enable-background="new 0 0 100 100" xml:space="preserve" width="435" height="435"><rect id="backgroundrect" width="100%" height="100%" x="0" y="0" fill="none" stroke="none" class=""/><g class="currentLayer"><title>Layer 1</title><g id="svg_1" class=""><path d="M174.0812225341797,334.78640842437744 c-0.18318761885166168,0 -0.33861929178237915,1.228548288345337 -0.33861929178237915,2.741649627685547 v5.921420574188232 c0,1.5131012201309204 1.5043575763702393,2.6829323768615723 3.369539260864258,2.597114324569702 l47.82302474975586,-2.055107831954956 c1.854079246520996,-0.08130097389221191 4.868345260620117,-0.18518562614917755 6.733526706695557,-0.2619697153568268 c6.528135299682617,-0.2529362142086029 20.861164093017578,-0.8581770658493042 27.389301300048828,-1.1427302360534668 c1.8651816844940186,-0.08130097389221191 3.369539260864258,1.084012746810913 3.369539260864258,2.597114324569702 v4.905158519744873 c0,1.5176180601119995 1.5043575763702393,2.764232873916626 3.369539260864258,2.7913334369659424 l12.079270362854004,0.1761520951986313 c1.854079246520996,0.0271003320813179 3.369539260864258,-1.1833810806274414 3.369539260864258,-2.6964824199676514 v-12.836520195007324 c0,-1.5131012201309204 -1.5154600143432617,-2.741649627685547 -3.369539260864258,-2.741649627685547 H228.30470275878906 h-53.88486862182617 C174.41981506347656,334.78640842437744 174.2699432373047,334.78640842437744 174.0812225341797,334.78640842437744 z" id="svg_2"/><path d="M295.68994140625,317.8847665786743 c1.8651816844940186,0 2.342578887939453,0.8897937536239624 1.0602667331695557,1.9918735027313232 l-6.81124210357666,5.858187198638916 c-1.2767609357833862,1.0975635051727295 -3.8247323036193848,1.9918735027313232 -5.678811073303223,1.9918735027313232 H228.30470275878906 h-54.52324676513672 c-1.8651816844940186,0 -4.44645881652832,-0.8581770658493042 -5.778731822967529,-1.9241232872009277 l-7.532890319824219,-6.002721309661865 c-1.3211698532104492,-1.0569125413894653 -0.8881812691688538,-1.9196062088012695 0.9658975601196289,-1.9196062088012695 H228.30470275878906 C250.77015686035156,317.8847665786743 273.2244873046875,317.8847665786743 295.68994140625,317.8847665786743 z" id="svg_3"/><path d="M259.746337890625,350.00772190093994 v-0.5284563899040222 c0,-1.5131012201309204 -1.5043575763702393,-2.678415536880493 -3.369539260864258,-2.597114324569702 L228.30470275878906,348.0700387954712 l-48.84443283081055,2.068657875061035 c-1.8651816844940186,0.08130097389221191 -3.036471128463745,1.3414660692214966 -2.6256866455078125,2.8184335231781006 l0.17208530008792877,0.6233073472976685 c0.41078394651412964,1.4769673347473145 2.253760814666748,2.6106643676757812 4.107840061187744,2.5293636322021484 l43.826210021972656,-1.8879891633987427 c1.854079246520996,-0.08581774681806564 4.868345260620117,-0.19873574376106262 6.733526706695557,-0.2755200266838074 c6.039634704589844,-0.24841953814029694 18.657365798950195,-0.7859092950820923 24.696998596191406,-1.0433624982833862 C258.2419738769531,352.8171396255493 259.746337890625,351.5208749771118 259.746337890625,350.00772190093994 z" id="svg_4"/><path d="M231.6631622314453,360.11615085601807 C229.80902099609375,360.2065134048462 228.30470275878906,360.29678440093994 228.30470275878906,360.31488132476807 c0,0.018066883087158203 -1.5043575763702393,0.1084013357758522 -3.3584365844726562,0.19873574376106262 l-45.491546630859375,2.21770977973938 c-1.854079246520996,0.0903344601392746 -2.958754777908325,1.3504996299743652 -2.470255136489868,2.8094003200531006 l0.22759655117988586,0.6820248365402222 c0.48850002884864807,1.4589002132415771 2.3869881629943848,2.574530601501465 4.252169132232666,2.493229866027832 l43.48759078979492,-2.0054240226745605 c1.854079246520996,-0.08581774681806564 4.868345260620117,-0.23486949503421783 6.722424507141113,-0.32068735361099243 c9.148270606994629,-0.43812188506126404 34.378177642822266,-1.5989192724227905 43.53200149536133,-2.0234906673431396 c1.854079246520996,-0.08581774681806564 3.0475730895996094,-1.3550162315368652 2.6478915214538574,-2.836500406265259 l-0.23869876563549042,-0.9349610209465027 c-0.3996818959712982,-1.4814844131469727 -0.8049145936965942,-2.678415536880493 -0.8881812691688538,-2.673898696899414 l-0.17208530008792877,0.004516722168773413 L231.6631622314453,360.11615085601807 z" id="svg_5"/><path d="M224.9462890625,373.11978244781494 c-9.431379318237305,0.4561888575553894 -36.0601692199707,1.680220127105713 -45.491546630859375,2.1138253211975098 c-1.854079246520996,0.0903344601392746 -2.958754777908325,1.3414660692214966 -2.470255136489868,2.8003666400909424 l0.22759655117988586,0.6820248365402222 c0.48850002884864807,1.4589002132415771 2.3869881629943848,2.574530601501465 4.252169132232666,2.493229866027832 l43.48759078979492,-2.0054240226745605 c1.854079246520996,-0.08581774681806564 4.868345260620117,-0.22583600878715515 6.722424507141113,-0.30713704228401184 c9.148270606994629,-0.4245719015598297 34.378177642822266,-1.58988618850708 43.53200149536133,-2.0054240226745605 c1.854079246520996,-0.0903344601392746 3.036471128463745,-1.3550162315368652 2.6256866455078125,-2.831983804702759 l-0.19428963959217072,-0.6639582514762878 c-0.41078394651412964,-1.4724507331848145 -2.253760814666748,-2.601630687713623 -4.107840061187744,-2.5203301906585693 l-41.838905334472656,1.9241232872009277 C229.80902099609375,372.88040256500244 226.80038452148438,373.0294198989868 224.9462890625,373.11978244781494 z" id="svg_6"/><path d="M224.9462890625,385.60855197906494 c-9.431379318237305,0.46070560812950134 -36.0601692199707,1.684736728668213 -45.491546630859375,2.122858762741089 c-1.854079246520996,0.08581774681806564 -2.958754777908325,1.3369492292404175 -2.470255136489868,2.8003666400909424 l0.22759655117988586,0.6775082349777222 c0.48850002884864807,1.4634170532226562 2.3869881629943848,2.574530601501465 4.252169132232666,2.493229866027832 l43.48759078979492,-2.0054240226745605 c1.854079246520996,-0.08581774681806564 4.868345260620117,-0.22583600878715515 6.722424507141113,-0.3116537034511566 c9.148270606994629,-0.4245719015598297 34.378177642822266,-1.58988618850708 43.53200149536133,-2.0099408626556396 c1.854079246520996,-0.08581774681806564 3.036471128463745,-1.3504996299743652 2.6256866455078125,-2.8274667263031006 l-0.19428963959217072,-0.6639582514762878 c-0.41078394651412964,-1.4769673347473145 -2.253760814666748,-2.6061477661132812 -4.107840061187744,-2.5203301906585693 l-41.838905334472656,1.9241232872009277 C229.80902099609375,385.3646249771118 226.80038452148438,385.51821994781494 224.9462890625,385.60855197906494 z" id="svg_7"/><path d="M184.78378295898438,401.89581394195557 l3.402845859527588,1.8428220748901367 c1.5487666130065918,0.8446270227432251 4.313231945037842,1.5221350193023682 6.167311668395996,1.5221350193023682 h30.575651168823242 c1.8651816844940186,0 4.8794474601745605,0.009033441543579102 6.74462890625,0.009033441543579102 c6.655810356140137,0.004516722168773413 21.39962387084961,0.009033441543579102 28.04988670349121,0.009033441543579102 c1.8651816844940186,0 4.501970291137695,-0.817526638507843 5.889753818511963,-1.824755311012268 l7.416316032409668,-5.379414081573486 c1.3877840042114258,-1.0117453336715698 1.0103065967559814,-1.766037940979004 -0.843772828578949,-1.680220127105713 l-86.8364028930664,3.834696054458618 C183.48483276367188,400.3104257583618 183.23504638671875,401.06024265289307 184.78378295898438,401.89581394195557 z" id="svg_8"/><path d="M205.8059539794922,417.8669443130493 l-5.3346405029296875,-7.5113067626953125 c-0.9325907826423645,-1.3098490238189697 -0.18318761885166168,-2.3712782859802246 1.6819937229156494,-2.3712782859802246 h22.781856536865234 c1.8651816844940186,0 4.8794474601745605,-0.018066883087158203 6.74462890625,-0.0225836168974638 c5.3346405029296875,-0.013550162315368652 15.654200553894043,-0.018066883087158203 20.988840103149414,-0.018066883087158203 c1.8651816844940186,0 2.6478915214538574,1.0704628229141235 1.7319540977478027,2.393861770629883 l-5.118145942687988,7.506788730621338 C248.37203979492188,419.17227268218994 246.14051818847656,420.24273777008057 244.2753143310547,420.24273777008057 h-33.4178352355957 C208.99229431152344,420.24273777008057 206.73855590820312,419.17678928375244 205.8059539794922,417.8669443130493 z" id="svg_9"/><path d="M328.7135925292969,102.12560367584229 c-3.219658136367798,0 -6.145106792449951,0.3974715769290924 -8.815202713012695,1.1878976821899414 l-92.2987289428711,25.68659019470215 L112.51356506347656,161.02813816070557 c-9.964287757873535,3.2655887603759766 -15.992818832397461,10.799478530883789 -16.07053565979004,18.893442153930664 c0,11.309867858886719 11.718445777893066,20.474294662475586 26.16249656677246,20.474294662475586 c3.1030845642089844,0 6.13400411605835,-0.43812188506126404 8.704179763793945,-1.1653136014938354 l96.28998565673828,-26.784154891967773 l109.87361145019531,-30.555614471435547 c10.658180236816406,-2.9629688262939453 17.325090408325195,-10.781412124633789 17.402809143066406,-19.295429229736328 C354.8761291503906,111.29452610015869 343.1632080078125,102.12560367584229 328.7135925292969,102.12560367584229 z" id="svg_10"/><path d="M200.5934295654297,197.37872409820557 c6.517032623291016,8.708236694335938 9.781099319458008,18.378538131713867 9.86436653137207,28.62245750427246 v20.465261459350586 h17.14190673828125 h13.4892578125 v-20.456226348876953 c0.0777159333229065,-10.243922233581543 3.6082377433776855,-20.221359252929688 10.12527084350586,-28.925077438354492 c6.6114020347595215,-8.84373950958252 16.26482582092285,-16.39569664001465 28.566139221191406,-21.598957061767578 l54.31785202026367,-15.23489761352539 c12.91193962097168,-3.2294554710388184 26.062578201293945,6.355026721954346 26.062578201293945,17.669410705566406 c-0.0777159333229065,8.509502410888672 -7.521788120269775,15.094881057739258 -17.391704559326172,19.29091453552246 l-37.95866394042969,10.383939743041992 c-6.439316272735596,2.7280993461608887 -9.314804077148438,13.238508224487305 -9.370315551757812,18.681156158447266 v20.198774337768555 h27.583589553833008 c7.516236782073975,0 13.583626747131348,5.0271100997924805 13.583626747131348,11.133715629577637 v10.763344764709473 l-19.22357940673828,41.90613555908203 c-5.323538780212402,4.304434776306152 -15.709712028503418,7.795859336853027 -23.214847564697266,7.795859336853027 H227.59971618652344 v-0.08581774681806564 H161.03050231933594 c-7.505133628845215,0 -17.891307830810547,-3.486908435821533 -23.214847564697266,-7.8003764152526855 l-19.22357940673828,-41.90161895751953 v-10.758828163146973 c0,-6.111123085021973 6.084043979644775,-11.052414894104004 13.583626747131348,-11.052414894104004 h23.90873908996582 v-20.207807540893555 c0,-5.73623514175415 -4.063430309295654,-10.722695350646973 -10.169678688049316,-13.337876319885254 L200.5934295654297,197.37872409820557 z" id="svg_11"/><path d="M232.98985290527344,13.737870216369629 c-1.354476809501648,0 -3.436152696609497,0.29810360074043274 -5.390152454376221,0.6413742303848267 c-2.6589934825897217,0.4652220606803894 -5.06263542175293,1.0162620544433594 -5.06263542175293,1.0162620544433594 l-110.02349090576172,30.654983520507812 c-9.964287757873535,3.2655887603759766 -15.992818832397461,10.799478530883789 -16.07053565979004,18.897958755493164 c0,11.305352210998535 11.718445777893066,20.474294662475586 26.16249656677246,20.474294662475586 c3.1030845642089844,0 6.072941780090332,-0.4200550615787506 8.643117904663086,-1.151763677597046 l96.3510513305664,-26.820287704467773 l14.149842262268066,-3.9385805130004883 c10.658180236816406,-2.9629688262939453 17.336193084716797,-10.781412124633789 17.402809143066406,-19.29091453552246 C259.1523742675781,22.906819343566895 247.43942260742188,13.737870216369629 232.98985290527344,13.737870216369629 z" id="svg_12"/><path d="M328.7135925292969,44.63676166534424 c-3.219658136367798,0 -6.145106792449951,0.40198802947998047 -8.815202713012695,1.1878976821899414 l-92.2987289428711,25.69110870361328 l-115.08612823486328,32.0280647277832 c-9.964287757873535,3.2655887603759766 -15.992818832397461,10.799478530883789 -16.07053565979004,18.893442153930664 c0,11.309867858886719 11.718445777893066,20.474294662475586 26.16249656677246,20.474294662475586 c3.1030845642089844,0 6.13400411605835,-0.43812188506126404 8.704179763793945,-1.1607972383499146 l96.28998565673828,-26.784154891967773 l109.87361145019531,-30.555614471435547 c10.658180236816406,-2.9674859046936035 17.325090408325195,-10.781412124633789 17.402809143066406,-19.295429229736328 C354.8761291503906,53.8012056350708 343.1632080078125,44.63676166534424 328.7135925292969,44.63676166534424 z" id="svg_13"/></g></g></svg>