<svg xmlns="http://www.w3.org/2000/svg" xmlns:xlink="http://www.w3.org/1999/xlink" version="1.1" xml:space="preserve" width="300" height="300"><rect id="backgroundrect" width="100%" height="100%" x="0" y="0" fill="none" stroke="none" class=""/><g class="currentLayer"><title>Layer 1</title><g id="svg_1" class=""><g id="svg_2"><path d="M279.41107749938965,87.48436050918895 h-273.20194244384766 C2.781692405697811,87.48436050918895 0,84.722385323749 0,81.29159241226512 S2.781692405697811,75.09882431534129 6.209135055541992,75.09882431534129 h273.20194244384766 C282.8385084912952,75.09882431534129 285.62021255493164,77.87318413928074 285.62021255493164,81.29159241226512 S282.8385084912952,87.48436050918895 279.41107749938965,87.48436050918895 z" id="svg_3"/></g><g id="svg_4"><path d="M80.7187557220459,87.48436050918895 C79.52659937541284,87.48436050918895 78.33444895027242,87.14995164616698 77.27889551711087,86.44397409874068 c-2.856202177362377,-1.8949871867822594 -3.626135189236379,-5.734503251845581 -1.726139527676196,-8.583177550901382 l49.67308044433594,-74.31321716308594 c1.8875771812361108,-2.848673376261445 5.737240945279609,-3.6165768845683033 8.605862158105992,-1.7215895132271726 c2.856202177362377,1.8949871867822594 3.626135189236379,5.734503251845581 1.726139527676196,8.583177550901382 l-49.67308044433594,74.31321716308594 C84.69260428933012,86.51828783562155 82.71810033647853,87.48436050918895 80.7187557220459,87.48436050918895 z" id="svg_5"/></g><g id="svg_6"><path d="M204.90145683288574,87.48436050918895 c-2.011759763917098,0 -3.973846716817775,-0.9660719353319109 -5.178418583028588,-2.761974631763337 l-49.67308044433594,-74.31321716308594 c-1.8999954765135385,-2.848673376261445 -1.130062649686181,-6.688189810442509 1.726139527676196,-8.583177550901382 s6.70586612645252,-1.1394693320486908 8.605862158105992,1.7215895132271726 l49.67308044433594,74.31321716308594 c1.8999954765135385,2.848673376261445 1.130062649686181,6.688189810442509 -1.726139527676196,8.583177550901382 C207.2857576831666,87.14995164616698 206.09361910101143,87.48436050918895 204.90145683288574,87.48436050918895 z" id="svg_7"/></g><path d="M271.9228526639199,77.52639063775928 C270.7555369788679,76.00296789052732 268.93005923102464,75.09882431534129 266.99280738830566,75.09882431534129 h-248.3654022216797 C16.690154804280155,75.09882431534129 14.864669654571117,76.00296789052732 13.697352489145942,77.52639063775928 C12.517616473303406,79.06219802349074 12.132650615029661,81.06865120162252 12.641799055984393,82.91409817337694 l32.262666364431425,117.9846180660752 C48.58027194029546,214.34940812074706 60.88677683874266,223.72525864151316 74.84491334366794,223.72525864151316 h68.95865359524578 c3.092149417540213,0 5.699986244493971,-2.266553287362399 6.147043764201499,-5.3133952752077676 c6.507173402013677,-45.194823650221224 50.18222814510409,-77.91740682533054 98.05465966019256,-66.83235216807225 c3.2535867010068387,0.7926743540562597 6.51959151224446,-1.1890114849446718 7.4012891816153115,-4.396865585051273 l17.571851733464428,-64.2561642777764 C273.4875715623275,81.06865120162252 273.102603483494,79.06219802349074 271.9228526639199,77.52639063775928 z" id="svg_8"/><path d="M229.7379970550537,161.79757767227488 c-37.66461315217384,0 -68.30048561096191,30.55511788471631 -68.30048561096191,68.12044906616211 s30.63587245878807,68.12044906616211 68.30048561096191,68.12044906616211 s68.30048561096191,-30.55511788471631 68.30048561096191,-68.12044906616211 S267.4026220502128,161.79757767227488 229.7379970550537,161.79757767227488 zM229.7379970550537,211.3397224476655 c3.427442834890826,0 6.209135055541992,2.77436000849832 6.209135055541992,6.192768096923828 S233.16542804695928,223.72525864151316 229.7379970550537,223.72525864151316 H211.11059188842773 v12.385536193847656 h18.627405166625977 c3.427442834890826,0 6.209135055541992,2.77436000849832 6.209135055541992,6.192768096923828 S233.16542804695928,248.49633102920848 229.7379970550537,248.49633102920848 H211.11059188842773 c0,6.712960563912475 8.531352016348137,12.385536193847656 18.652241387087543,12.385536193847656 c11.983631071700529,0 18.254857418583015,-2.266553287362399 18.627405166625977,-6.712960563912475 c0.2732019640943051,-3.406022527131654 3.613716708912307,-5.969828731869939 6.70586612645252,-5.647804876465216 c3.4150243545667536,0.2848673560820316 5.948351779949235,3.2821669141931125 5.6627315437083325,6.700575187177492 C259.74054219113896,267.1984935167427 249.30919340295077,273.2674034169038 229.76284363812738,273.2674034169038 C212.625617620688,273.2674034169038 198.69232177734375,262.1575853885304 198.69232177734375,248.49633102920848 h-6.209135055541992 c-3.427442834890826,0 -6.209135055541992,-2.77436000849832 -6.209135055541992,-6.192768096923828 s2.781692405697811,-6.192768096923828 6.209135055541992,-6.192768096923828 H198.69232177734375 v-12.385536193847656 h-6.209135055541992 c-3.427442834890826,0 -6.209135055541992,-2.77436000849832 -6.209135055541992,-6.192768096923828 s2.781692405697811,-6.192768096923828 6.209135055541992,-6.192768096923828 H198.69232177734375 c0,-13.66124697696705 13.933298804090555,-24.771072387695312 31.07051001779837,-24.771072387695312 c19.546357166689177,0 29.977704474504208,6.068912853103029 30.99600283678683,18.058111085547353 c0.28562023624090216,3.406022527131654 -2.2477070040949343,6.41570783109546 -5.6627315437083325,6.700575187177492 c-3.179077299435562,0.2477107414100459 -6.432664000442401,-2.2293966034808363 -6.70586612645252,-5.647804876465216 c-0.3725481181362511,-4.458793206961673 -6.643774094925448,-6.712960563912475 -18.627405166625977,-6.712960563912475 C219.6419468655222,198.95418625381785 211.11059188842773,204.6267640984595 211.11059188842773,211.3397224476655 H229.7379970550537 z" id="svg_9"/></g></g></svg>