<svg xmlns="http://www.w3.org/2000/svg" xmlns:xlink="http://www.w3.org/1999/xlink" version="1.1" enable-background="new 0 0 100 100" xml:space="preserve" width="87" height="87.09434043745762"><rect id="backgroundrect" width="100%" height="100%" x="0" y="0" fill="none" stroke="none" class=""/><g class="currentLayer"><title>Layer 1</title><path d="M89.60400390625,74.48018407821655 c-0.7709996104240417,-0.5530002117156982 -26.25200080871582,-9.51300048828125 -28.874000549316406,-13.756999969482422 c-1.9709999561309814,-3.625999927520752 -0.8619997501373291,-6.329999923706055 1.2609999179840088,-13.041000366210938 c2.4549999237060547,3.509999990463257 5.206999778747559,-3.11899995803833 5.704999923706055,-4.8429999351501465 c0,0 2.056999921798706,-6.515999794006348 -2.3289999961853027,-6.736000061035156 c-0.03500000014901161,-0.34700000286102295 -0.5659997463226318,-6.876999855041504 -0.967000424861908,-8.24899959564209 c-0.39900001883506775,-1.0520000457763672 -4.309999942779541,-11.26200008392334 -18.993000030517578,-9.659000396728516 c-1.7860000133514404,0.3020000159740448 -4.946000099182129,2.1659998893737793 -7.466000080108643,4.890999794006348 c-2.4809999465942383,2.447000026702881 -3.934999942779541,6.889999866485596 -4.02400016784668,14.958999633789062 c-0.7199997901916504,0.27600011229515076 -1.0720000267028809,1.1949999332427979 -0.3790000081062317,3.5250000953674316 c0.6580004096031189,2.694000005722046 0.7519997954368591,4.7179999351501465 0.6809999942779541,6.5 c-0.10400000214576721,2.0280001163482666 1.0750000476837158,2.3320000171661377 1.0850000381469727,2.3320000171661377 c0,0 0,0 0,0 c2.0380001068115234,4.074999809265137 3.140000104904175,6.206999778747559 3.382999897003174,6.71999979019165 c0.5900002121925354,3.1440000534057617 -6.27400016784668,8.317000389099121 -29.187999725341797,18.714000701904297 c-4.609000205993652,1.8930000066757202 -3.0299999713897705,14.083000183105469 -3.0299999713897705,14.083000183105469 h86.572998046875 c0.006000000052154064,-0.0010000000474974513 0.010000004433095455,0 0.01600000075995922,0 C93.0570068359375,89.91918706893921 93.77799987792969,76.5132040977478 89.60400390625,74.48018407821655 zM43.138004302978516,87.42417669296265 c-0.6159999966621399,-2.0850000381469727 -1.3940000534057617,-5.781000137329102 -2.121999979019165,-9.661999702453613 c1.3899999856948853,-1.906000018119812 2.5850000381469727,-3.3420000076293945 3.6110000610351562,-4.430999755859375 c0.3540002107620239,0.8050000071525574 0.8670002222061157,1.5859999656677246 1.5119998455047607,2.2160000801086426 C45.10000991821289,78.22918462753296 43.78801345825195,84.26418828964233 43.138004302978516,87.42417669296265 zM45.70401382446289,71.128182888031 c-1.2960000038146973,1.1230000257492065 -2.9100000858306885,2.8550000190734863 -4.894999980926514,5.514999866485596 c-0.5960000157356262,-3.255000114440918 -1.1410000324249268,-6.539000034332275 -1.5090000629425049,-9.015000343322754 c-0.49400001764297485,-3.322999954223633 -0.6770002245903015,-5.955999851226807 -0.7139997482299805,-6.559999942779541 c0.28600001335144043,-0.4399999976158142 0.5180000066757202,-0.8219996094703674 0.6200000047683716,-1.0470000505447388 c0.2770000100135803,1.0299999713897705 0.9890000224113464,2.7669999599456787 2.8340001106262207,4.3979997634887695 c1.6690000295639038,1.4780000448226929 4.409999847412109,3.75 6.413000106811523,4.671000003814697 C47.390010833740234,69.50719594955444 46.41701126098633,70.36118459701538 45.70401382446289,71.128182888031 zM42.58900833129883,63.79619741439819 c-2.5239999294281006,-2.2339999675750732 -2.9070000648498535,-5.073999881744385 -2.952000141143799,-5.105999946594238 c0.11100000143051147,-0.5559999942779541 0.12700000405311584,-1.2300000190734863 -0.19900000095367432,-1.9219999313354492 c-0.25,-0.527999997138977 -0.8550000190734863,-1.694000005722046 -1.496000051498413,-2.930000066757202 c-0.7400000095367432,-1.4279999732971191 -1.753999948501587,-3.382999897003174 -1.8330001831054688,-3.63700008392334 c-0.0650000125169754,-0.25999999046325684 -0.26199981570243835,-0.4179999828338623 -0.43400001525878906,-0.5590000152587891 c-0.31299999356269836,-0.25200000405311584 -0.667000412940979,-0.5389997959136963 -0.6270002126693726,-1.5390000343322754 c0.0740000531077385,-1.8389999866485596 -0.17800012230873108,-4.867000102996826 -0.72199946641922,-6.795000076293945 c-0.2750000059604645,-0.828000009059906 -0.8880000114440918,-2.2850000858306885 -0.07300001382827759,-2.4809999465942383 v0.753000020980835 c0.3479999899864197,0.8740000128746033 0.8300002217292786,0.22200000286102295 0.8300002217292786,-0.006000000052154064 c0,0 -0.13099990785121918,-14.109999656677246 4.742000102996826,-15.029999732971191 c2.510999917984009,-0.6540002226829529 12.116000175476074,-2.4029998779296875 16.969999313354492,1.2619999647140503 c1.656000018119812,1.8459999561309814 -2.936000108718872,3.4119999408721924 1.0509999990463257,6.60099983215332 c0.33500000834465027,1.402999997138977 0.6990004181861877,2.1080000400543213 1.6130001544952393,2.257999897003174 c1.4769999980926514,2.305000066757202 0.9660000205039978,3.4779999256134033 0.9660000205039978,3.4779999256134033 c-0.4750001132488251,2.068000078201294 0.3020000159740448,2.4070000648498535 0.4590001106262207,2.4070000648498535 c1.4149999618530273,0.08700001239776611 2.368000030517578,-3.7019999027252197 4.5879998207092285,-3.625 c2.1610000133514404,-0.03700000047683716 2.0959999561309814,3.568000078201294 1.4259999990463257,5.682000160217285 c-0.6690000295639038,2.114000082015991 -2.128000020980835,4.9770002365112305 -3.371999979019165,5.111999988555908 c-0.414000004529953,0 -0.9000002145767212,-0.44699999690055847 -1.371999979019165,-1.2599999904632568 c-0.6530004143714905,-0.4950000047683716 -0.8300002217292786,0.39600011706352234 -0.8819997906684875,0.6359997987747192 c-0.21900002658367157,0.9819999933242798 -0.675000011920929,3.0260000228881836 -1.1380000114440918,4.117000102996826 c-0.6180002093315125,1.4530000686645508 -1.6570000648498535,6.0970001220703125 -1.430999994277954,7.473999977111816 c-0.12800000607967377,0.3370000123977661 -0.4179999828338623,1.1920000314712524 -0.8070002198219299,2.944000005722046 c-0.48100000619888306,2.174999952316284 -6.730999946594238,7.045000076293945 -8.121999740600586,7.045000076293945 C48.640010833740234,68.59719228744507 45.95401382446289,66.773202419281 42.58900833129883,63.79619741439819 zM56.48500442504883,89.08919286727905 h-1.1490000486373901 c-0.460999995470047,-2.763000011444092 -2.8429999351501465,-11.010000228881836 -3.453000068664551,-13.100000381469727 c1.6530001163482666,-1.0329999923706055 2.8320000171661377,-2.572000026702881 3.052000045776367,-2.871999979019165 c1.3530000448226929,1.1929999589920044 2.5869998931884766,2.4579999446868896 3.316999912261963,3.260999917984009 C57.536014556884766,81.51919317245483 56.695011138916016,87.58319616317749 56.48500442504883,89.08919286727905 zM58.37800979614258,75.29320287704468 c-0.785999596118927,-0.8289999961853027 -2.2179999351501465,-2.2739999294281006 -3.7690000534057617,-3.5450000762939453 c-0.8119997978210449,-0.9580004215240479 -2.558000087738037,-1.8949999809265137 -3.8540000915527344,-2.501999855041504 c2.5349998474121094,-1.0780000686645508 7.486999988555908,-5.329999923706055 7.953000068664551,-7.436999797821045 c0.20499999821186066,-0.9259999990463257 0.38000011444091797,-1.5850000381469727 0.5159997940063477,-2.0460000038146973 c0.13199999928474426,0.2460000067949295 0.289000004529953,0.5259996056556702 0.48500001430511475,0.8540002107620239 c0.08000001311302185,0.13499990105628967 0.16499990224838257,0.28700000047683716 0.24800002574920654,0.4320000112056732 L58.37800979614258,75.29320287704468 zM62.992008209228516,39.62918996810913 c0.36000001430511475,-0.6190000176429749 1.7259998321533203,-2.427999973297119 2.632999897003174,-2.2980000972747803 c0.49900001287460327,0.0740000531077385 0.8690000176429749,0.49400001764297485 1.1319999694824219,1.2820000648498535 c0.1469999998807907,0.41099998354911804 -0.46000000834465027,0.9370006322860718 -0.7879997491836548,0.2629999816417694 c-0.16899999976158142,-0.5070000290870667 -0.3530000150203705,-0.7070000171661377 -0.46600010991096497,-0.7239997982978821 c-0.6389999985694885,0.007000000216066837 -1.7639999389648438,1.8700000047683716 -1.8600000143051147,1.991999864578247 c-0.48000001907348633,0.6209999918937683 0.3440000116825104,1.8430001735687256 0.4300000071525574,2.0179998874664307 c0.5470002293586731,1.1330000162124634 0.28600001335144043,1.875999927520752 0.2549999952316284,1.9570000171661377 c-0.15200002491474152,0.44099998474121094 -1.0570000410079956,0.44099998474121094 -0.7770000100135803,-0.29400011897087097 c0.011000006459653378,-0.03200000151991844 0.15700000524520874,-0.5090000033378601 -0.22699999809265137,-1.3020000457763672 C63.24400329589844,42.35819387435913 62.0150032043457,40.9151930809021 62.992008209228516,39.62918996810913 zM36.208011627197266,38.222190380096436 c0,0 -0.8519999980926514,0.7540000081062317 -0.8480002284049988,-0.15400001406669617 c-0.004000000189989805,-0.09800001233816147 -0.06700000166893005,-2.4140000343322754 1.936000108718872,-3.13100004196167 c0.667000412940979,-0.23900000751018524 1.680999994277954,-0.5239997506141663 2.7189998626708984,-0.5239997506141663 c1.4129999876022339,0 2.4179999828338623,0.5410000085830688 2.9079999923706055,1.565999984741211 c0.12100005149841309,0.2629999816417694 -0.03200000151991844,0.45600011944770813 -0.11000000685453415,0.5379997491836548 c-0.328000009059906,0.34700000286102295 -1.1230000257492065,0.37400001287460327 -2.5420000553131104,0.12800000607967377 C40.01201248168945,36.59918928146362 38.39400863647461,35.99919080734253 36.208011627197266,38.222190380096436 zM46.54500961303711,35.167190074920654 c-0.0740000531077385,-1.5460000038146973 4.1529998779296875,-1.9509999752044678 5.663000106811523,-1.3899999856948853 c2.374000072479248,1.0019999742507935 4.39300012588501,2.827000141143799 4.478000164031982,2.9049999713897705 c0.3460000157356262,0.20800000429153442 0.15700000524520874,0.8430004119873047 -0.43799999356269836,0.6900004148483276 c0,0 -1.4490000009536743,-0.5960000157356262 -2.450000047683716,-1.0429999828338623 c-1.7350000143051147,-0.7730000019073486 -5.881999969482422,-0.007000000216066837 -6.503000259399414,-0.2930000126361847 C47.22800827026367,36.00718641281128 46.63400650024414,35.73818922042847 46.54500961303711,35.167190074920654 zM37.01700973510742,39.62319326400757 C37.01700973510742,39.62419271469116 37.01601028442383,39.62419271469116 37.01700973510742,39.62319326400757 c-0.0010000000474974513,0.0010000000474974513 -0.0010000000474974513,0.0010000000474974513 -0.0010000000474974513,0.0020000000949949026 s-0.0010000000474974513,0 -0.0010000000474974513,0.0010000000474974513 c-0.0820000022649765,0.10700000077486038 -0.3320000171661377,0.3530000150203705 -0.5799997448921204,0.08100005239248276 c-0.5619997978210449,-0.609000027179718 1.6400001049041748,-2.4060001373291016 2.674999952316284,-2.5339999198913574 c1.3540000915527344,-0.1669999063014984 3.1570000648498535,0.2990001142024994 3.4660000801086426,1.1679999828338623 c0.12300000339746475,0.4020000100135803 -0.3020000159740448,0.828000009059906 -0.7390000224113464,0.367000013589859 c-0.01200000662356615,-0.017000000923871994 -0.3409999907016754,-0.4909999966621399 -0.9650002121925354,-0.4880000054836273 c-0.12800000607967377,0.46799999475479126 -0.44600000977516174,1.031999945640564 -1.0780000686645508,1.1490000486373901 c-0.6570004224777222,0.12100005149841309 -1.4300000667572021,0.06300000101327896 -1.753999948501587,-0.6460000276565552 C37.83101272583008,38.82618284225464 37.27101516723633,39.28019666671753 37.01700973510742,39.62319326400757 zM48.37601089477539,37.20318555831909 c0.5199997425079346,-0.39600011706352234 0.863000214099884,-0.8130000233650208 2.2739999294281006,-0.8659999966621399 c1.4119999408721924,-0.05400003120303154 3.578000068664551,1.2360000610351562 3.7360000610351562,1.3170000314712524 c0.4309999942779541,0.24900002777576447 0.2549999952316284,0.8840000033378601 -0.24200010299682617,0.7989996075630188 c-0.26799988746643066,-0.07200001180171967 -1.8050000667572021,-0.7989996075630188 -1.9709999561309814,-0.8440002202987671 c-0.17900016903877258,0.9290000200271606 -1.4270000457763672,0.8730000257492065 -1.5119998455047607,0.8730000257492065 c-0.3630000054836273,0 -0.6290000081062317,-0.0910000130534172 -0.8109997510910034,-0.27900001406669617 c-0.19200000166893005,-0.19900000095367432 -0.24200010299682617,-0.453000009059906 -0.25,-0.7049997448921204 c-0.6209999918937683,0.02000000886619091 -1.3600000143051147,1.184999942779541 -1.7249999046325684,1.0839999914169312 C47.06501388549805,38.30819272994995 48.15201187133789,37.36419630050659 48.37601089477539,37.20318555831909 zM40.398014068603516,57.45519399642944 c-0.005000001285225153,-0.01600000075995922 -0.5490000247955322,-1.6690000295639038 -1.2259999513626099,-2.8259999752044678 c-0.42600011825561523,-0.7289997935295105 -0.7450000047683716,-1.7909996509552002 -1.0820000171661377,-2.9140000343322754 c-0.2370000034570694,-0.7939997911453247 -0.4840001165866852,-1.6159999370574951 -0.7590000033378601,-2.252000093460083 c-0.5830000042915344,-1.3480000495910645 0.17500002682209015,-2.507999897003174 0.9780002236366272,-3.7350001335144043 c0.25200000405311584,-0.3880000114440918 0.5199997425079346,-0.7939997911453247 0.7619996070861816,-1.2319999933242798 c1.059000015258789,-1.9149999618530273 2.240000009536743,-2.189000129699707 2.371000051498413,-2.2139999866485596 c0.22699999809265137,-0.042000021785497665 0.4429999887943268,0.10500001162290573 0.4860002100467682,0.33000001311302185 c0.042000021785497665,0.2239999920129776 -0.10300000011920929,0.4390000104904175 -0.32500001788139343,0.48500001430511475 c-0.031000006943941116,0.00800000037997961 -0.9460002183914185,0.2460000067949295 -1.8050000667572021,1.8009999990463257 c-0.2549999952316284,0.460999995470047 -0.527999997138977,0.8799999952316284 -0.7929993867874146,1.284999966621399 c-0.8149999976158142,1.249000072479248 -1.2960000038146973,2.058000087738037 -0.9100000262260437,2.952000141143799 c0.2930000126361847,0.6809999942779541 0.5470002293586731,1.5249998569488525 0.7919994592666626,2.3420000076293945 c0.30799999833106995,1.0269999504089355 0.6270002126693726,2.0889999866485596 1.0019999742507935,2.7330000400543213 c0.7229994535446167,1.2360000610351562 1.274999976158142,2.9159998893737793 1.2979999780654907,2.986999988555908 c0.07200001180171967,0.21800002455711365 -0.04700000584125519,0.453000009059906 -0.26600000262260437,0.5230000019073486 c-0.0430000014603138,0.014000000432133675 -0.0860000029206276,0.021000010892748833 -0.12800000607967377,0.021000010892748833 C40.61801528930664,57.74120473861694 40.45500564575195,57.630197048187256 40.398014068603516,57.45519399642944 zM52.229007720947266,54.354196071624756 c0.6119997501373291,-1.0870000123977661 1.5219998359680176,-3.635999917984009 1.9259999990463257,-5.855999946594238 c0.28299999237060547,-1.560999870300293 -0.42800000309944153,-2.059999942779541 -1.4129999876022339,-2.75 c-0.26499998569488525,-0.1860000044107437 -0.5370000004768372,-0.37700000405311584 -0.7979997992515564,-0.5940002202987671 c-1.2230000495910645,-1.0190000534057617 -3.5230000019073486,-2.736999988555908 -3.5460000038146973,-2.753999948501587 c-0.18400000035762787,-0.1369999796152115 -0.22200000286102295,-0.39800000190734863 -0.08500005304813385,-0.5809997916221619 c0.13799990713596344,-0.1850000023841858 0.39900001883506775,-0.22200000286102295 0.5819995999336243,-0.08500005304813385 c0.023000013083219528,0.018000002950429916 2.3420000076293945,1.749000072479248 3.5820000171661377,2.7820000648498535 c0.24200010299682617,0.20200000703334808 0.49600011110305786,0.3790000081062317 0.7430002093315125,0.5519997477531433 c1.0470000505447388,0.7350000143051147 2.13100004196167,1.49399995803833 1.751999855041504,3.578000068664551 c-0.41899988055229187,2.305000066757202 -1.375,4.968999862670898 -2.0190000534057617,6.116000175476074 c-0.07700005173683167,0.13499990105628967 -0.21800002455711365,0.2120000272989273 -0.3630000054836273,0.2120000272989273 c-0.0690000131726265,0 -0.13899999856948853,-0.018000002950429916 -0.2030000239610672,-0.05400003120303154 C52.18800735473633,54.807191371917725 52.117008209228516,54.55419301986694 52.229007720947266,54.354196071624756 zM43.04800796508789,45.51518774032593 c1.2820000648498535,1.2300000190734863 2.2060000896453857,0.17500002682209015 2.4850001335144043,-0.20399999618530273 c0.25200000405311584,-0.3400000035762787 0.5450000166893005,-0.7839997410774231 1.2239999771118164,-0.7400000095367432 c0.9810000061988831,0.19900000095367432 2.0799999237060547,0.17900016903877258 2.187999963760376,-0.1359999030828476 c0.5410000085830688,-0.6580004096031189 0.9150000214576721,-0.010000004433095455 0.7849996089935303,0.2709999978542328 c-0.4099999964237213,1.1859999895095825 -2.631999969482422,0.7789997458457947 -3.072999954223633,0.6859997510910034 c-0.6460000276565552,-0.08500005304813385 -0.7059997916221619,1.2920000553131104 -2.4749999046325684,1.5319993495941162 c-0.6520000100135803,0.003000000026077032 -1.25,-0.4020000100135803 -1.8280000686645508,-0.8919996023178101 c-1.7979998588562012,0.23200002312660217 -2.1630001068115234,-0.39800000190734863 -2.2320001125335693,-0.6000000238418579 c-0.10700000077486038,-0.703000009059906 0.667000412940979,-0.5070000290870667 0.7599999904632568,-0.328000009059906 c0.04500000178813934,0.03600000590085983 0.35500001907348633,0.24400000274181366 1.4179999828338623,0.09800001233816147 C42.5510139465332,45.13719320297241 42.76201248168945,45.299195766448975 43.04800796508789,45.51518774032593 zM53.18400955200195,49.250192165374756 c-0.042000021785497665,-0.2809999883174896 -0.27000001072883606,-0.4690000116825104 -0.630999743938446,-0.4690000116825104 c-0.1639999896287918,0.003000000026077032 -0.40299999713897705,-0.08900005370378494 -0.7229994535446167,-0.2070000022649765 c-0.5809997916221619,-0.2120000272989273 -1.4570000171661377,-0.5339997410774231 -2.7939999103546143,-0.6740000247955322 c-1.8359999656677246,-0.1979999989271164 -3.628000020980835,0.6680002212524414 -4.289999961853027,1.031999945640564 c-0.3920000195503235,-0.2669999897480011 -0.9480005502700806,-0.4020000100135803 -1.6579999923706055,-0.4020000100135803 c-1.3600000143051147,0 -3.1589999198913574,0.5289997458457947 -3.797999858856201,0.984000027179718 c-0.36600011587142944,0.2609998881816864 -0.40400001406669617,0.5809997916221619 -0.3940001130104065,0.7490000128746033 c0.04000002145767212,0.6650000214576721 0.913000226020813,1.1920000314712524 1.1260000467300415,1.3029999732971191 c0.14100000262260437,0.10700000077486038 0.28200000524520874,0.2879999876022339 0.44699999690055847,0.4970000088214874 c0.5600000023841858,0.710999608039856 1.4049999713897705,1.7860000133514404 3.7350001335144043,1.871999979019165 c1.6970000267028809,0.042000021785497665 3.0859999656677246,-0.663000226020813 4.131999969482422,-1.3079999685287476 c0.6359997987747192,-0.3930000066757202 1.2369999885559082,-0.7630000114440918 1.9900000095367432,-0.9940000176429749 C52.13701248168945,51.078195095062256 53.286014556884766,49.93119192123413 53.18400955200195,49.250192165374756 zM41.87301254272461,52.35219717025757 c0.9630004167556763,-0.18000000715255737 4.572000026702881,-0.4770001173019409 6.326000213623047,-0.6150000095367432 C47.359012603759766,52.44819784164429 44.46001052856445,53.93919515609741 41.87301254272461,52.35219717025757 zM50.08201217651367,50.83918905258179 c-0.5719996094703674,0.17600010335445404 -1.062000036239624,0.42200011014938354 -1.5199999809265137,0.6859997510910034 c-0.29500001668930054,-0.23499999940395355 -0.5119996070861816,-0.6190000176429749 -0.5119996070861816,-0.6190000176429749 c-0.009000001475214958,1.0529999732971191 -1.5480000972747803,0.6070004105567932 -2.447999954223633,0.6770002245903015 c-0.8989997506141663,0.0690000131726265 -1.7300000190734863,0.17200011014938354 -2.2839999198913574,0.17200011014938354 c-0.5530002117156982,0 -0.69100022315979,0.17300011217594147 -0.9680004119873047,0.34700000286102295 c-0.1420000046491623,0.08900005370378494 -0.3540002107620239,0.0860000029206276 -0.5299997925758362,0.06300000101327896 c-1.2549999952316284,-1.9079999923706055 -0.3009999990463257,-1.5169999599456787 -0.3009999990463257,-1.5169999599456787 c0,-1.1430000066757202 0.6660000085830688,-0.31200000643730164 0.6660000085830688,-0.31200000643730164 c0.0430000014603138,-1.1770000457763672 1.100000023841858,-0.328000009059906 1.100000023841858,-0.328000009059906 c-0.021000010892748833,-0.25999999046325684 0.3370000123977661,-0.9540004134178162 1.1150000095367432,-0.2879999876022339 c0.1359999030828476,0.1459999680519104 0.3940001130104065,0.1710001677274704 0.5239997506141663,0.06800000369548798 c1.0180000066757202,-0.8249997496604919 1.75,-0.3840002119541168 1.7869999408721924,-0.11000000685453415 c0,0 1.2630000114440918,-0.6219997406005859 1.340000033378601,0 c0,0 1.4259999990463257,-1.2450000047683716 1.2879999876022339,0 c0,0 0.6540002226829529,-0.695000410079956 0.8659999966621399,-0.30000001192092896 c0.6800000071525574,-0.3440000116825104 1.1829999685287476,-0.08300001174211502 1.340000033378601,-0.025000013411045074 c0.24400000274181366,0.08900005370378494 0.45500001311302185,0.1669999063014984 0.6680002212524414,0.2130001038312912 C51.93500900268555,49.90519094467163 51.26201248168945,50.47719717025757 50.08201217651367,50.83918905258179 zM56.84701156616211,60.00718069076538 c-1.090000033378601,2.6470000743865967 -5.986999988555908,6.458000183105469 -9.395000457763672,5.552999973297119 c-0.7870000004768372,-0.31700000166893005 -6.736000061035156,-3.6019999980926514 -7.006999969482422,-6.720999717712402 c0,0 1.7130000591278076,2.439000129699707 3.2699999809265137,2.880000114440918 c1.558000087738037,0.44099998474121094 3.736999988555908,0.675000011920929 6.203000068664551,0 c2.4649999141693115,-0.6740000247955322 6.980000019073486,-5.3460001945495605 7.9670000076293945,-6.695000171661377 S57.937007904052734,57.36119222640991 56.84701156616211,60.00718069076538 zM52.367008209228516,57.4881911277771 c0.05800003185868263,-0.2930000126361847 0.33000001311302185,-0.7689999938011169 0.8930000066757202,-1.7309999465942383 c0.6710000038146973,-1.1480000019073486 1.5900001525878906,-2.7200000286102295 2.197000026702881,-4.261000156402588 c0.9970002174377441,-2.5269999504089355 0.9750000238418579,-5.451000213623047 0.9740002155303955,-5.480000019073486 c-0.0020000000949949026,-0.2290000021457672 0.1820000261068344,-0.4169999957084656 0.41099998354911804,-0.42000001668930054 c0.0020000000949949026,0 0.003000000026077032,0 0.005000001285225153,0 c0.22699999809265137,0 0.4129999876022339,0.18300005793571472 0.41600000858306885,0.41099998354911804 c0.0010000000474974513,0.125 0.023000013083219528,3.117000102996826 -1.0329999923706055,5.794000148773193 c-0.630999743938446,1.5989999771118164 -1.568000078201294,3.203000068664551 -2.253000020980835,4.375 c-0.35500001907348633,0.609000027179718 -0.7590000033378601,1.2990000247955322 -0.7939997911453247,1.472000002861023 c-0.04000002145767212,0.19599997997283936 -0.2130001038312912,0.3340001106262207 -0.40799999237060547,0.3340001106262207 c-0.02700001373887062,0 -0.05300002172589302,-0.003000000026077032 -0.08100005239248276,-0.00800000037997961 C52.47001266479492,57.92919301986694 52.32400894165039,57.71318960189819 52.367008209228516,57.4881911277771 zM57.18400955200195,37.521193981170654 c0.11900000274181366,-0.19599997997283936 0.37400001287460327,-0.2609998881816864 0.5699999928474426,-0.14100000262260437 c0.1969999074935913,0.11800000071525574 0.2590000033378601,0.37400001287460327 0.14100000262260437,0.5699999928474426 c-0.5049999952316284,0.8360000252723694 -2.2920000553131104,0.9860000014305115 -2.6700000762939453,0.9300004243850708 c-0.22499997913837433,-0.06300000101327896 -0.39900001883506775,-0.2150000035762787 -0.3840002119541168,-0.4440000057220459 c0.017000000923871994,-0.2280000001192093 0.2130001038312912,-0.40799999237060547 0.4440000057220459,-0.3840002119541168 C55.682010650634766,38.08019208908081 56.87101364135742,38.04119062423706 57.18400955200195,37.521193981170654 zM55.393009185791016,39.21218824386597 c0.0910000130534172,-0.20900000631809235 0.3340001106262207,-0.30900001525878906 0.5450000166893005,-0.21800002455711365 c0.031000006943941116,0.013000000268220901 0.75,0.3260002136230469 1.2230000495910645,0.8690000176429749 c0.14900000393390656,0.17300011217594147 0.13099990785121918,0.4350000023841858 -0.042000021785497665,0.585999608039856 c-0.0790000706911087,0.0690000131726265 -0.17500002682209015,0.10200000554323196 -0.2720000147819519,0.10200000554323196 c-0.11600000411272049,0 -0.23100000619888306,-0.0480000264942646 -0.31299999356269836,-0.14300000667572021 c-0.3449999988079071,-0.3970000147819519 -0.9180002212524414,-0.6480004191398621 -0.9230002164840698,-0.6500002145767212 C55.4000129699707,39.66619253158569 55.30301284790039,39.42319059371948 55.393009185791016,39.21218824386597 z" id="svg_1" class="" transform="translate(-6.603774070739746,-1.886792540550232) "/></g></svg>