<svg xmlns="http://www.w3.org/2000/svg" xmlns:xlink="http://www.w3.org/1999/xlink" version="1.1" enable-background="new 0 0 100 100" xml:space="preserve" width="300" height="300"><rect id="backgroundrect" width="100%" height="100%" x="0" y="0" fill="none" stroke="none" class=""/><g class="currentLayer"><title>Layer 1</title><g id="svg_1" class=""><path d="M122.16702365875244,111.66988372802734 h28.54622459411621 v-5.901268005371094 c-8.119813919067383,-1.0352593660354614 -16.24553108215332,-4.982003688812256 -18.145662307739258,-15.34329605102539 L145.12202548980713,87.10784912109375 c0.6314100027084351,4.352728366851807 4.006798267364502,8.606861114501953 11.079180717468262,8.606861114501953 c4.956863880157471,0 8.435519218444824,-2.177814245223999 8.435519218444824,-6.634939193725586 c0,-6.634939193725586 -7.4913554191589355,-7.258414268493652 -15.40168285369873,-9.331832885742188 c-7.6978912353515625,-1.9719223976135254 -15.714438438415527,-5.39088773727417 -15.714438438415527,-16.79323959350586 c0,-9.746517181396484 6.116415500640869,-15.552087783813477 16.342897415161133,-16.900535583496094 v-8.502466201782227 h10.447770118713379 v8.603961944580078 c9.279366493225098,1.2440510988235474 15.186295509338379,6.014363765716553 17.2929630279541,13.994850158691406 l-12.020394325256348,3.215973377227783 c-0.9471151828765869,-4.564420700073242 -4.219235420227051,-7.3628106117248535 -10.551037788391113,-7.3628106117248535 c-6.010197162628174,0 -8.541738510131836,2.7983899116516113 -8.541738510131836,6.32465124130249 c0,5.184996128082275 4.537890434265137,6.32465124130249 12.554437637329102,8.29367446899414 c8.33225154876709,2.0763182640075684 19.19899559020996,4.87470817565918 19.19899559020996,17.729902267456055 c0,10.158300399780273 -6.856995105743408,15.966772079467773 -17.08937644958496,17.416715621948242 v5.901268005371094 h27.49584197998047 c11.704689025878906,-9.450728416442871 19.181291580200195,-23.784862518310547 19.181291580200195,-39.83573532104492 c0,-28.45368194580078 -23.47134017944336,-51.52517318725586 -52.42473220825195,-51.52517318725586 c-28.965198516845703,0 -52.43063735961914,23.071491241455078 -52.43063735961914,51.52517318725586 C102.98278141021729,87.88792419433594 110.45349216461182,102.21916198730469 122.16702365875244,111.66988372802734 z" id="svg_2"/><path d="M277.2224283218384,133.09134674072266 c-0.8231934905052185,-7.757194519042969 -7.393988609313965,-14.209441184997559 -16.3606014251709,-16.062467575073242 c2.395817279815674,-2.186513900756836 5.127993583679199,-3.3899667263031006 7.367433547973633,-3.1637754440307617 c3.4166953563690186,0.3508862257003784 6.47047758102417,-2.082118034362793 6.821588516235352,-5.437285900115967 c0.35996273159980774,-3.355168104171753 -2.118468999862671,-6.37394905090332 -5.5322136878967285,-6.704536437988281 c-7.069431304931641,-0.7249714136123657 -14.546035766601562,2.78389048576355 -19.99268341064453,9.389830589294434 c-2.115518569946289,2.5634992122650146 -3.7353508472442627,5.34158992767334 -4.832942008972168,8.209577560424805 c-4.307750701904297,2.032819986343384 -8.33520221710205,5.211094856262207 -11.82565975189209,9.15783977508545 c-7.025174140930176,-7.852890968322754 -15.454792022705078,-14.46173095703125 -24.955448150634766,-19.37123680114746 c-3.2367138862609863,4.39622688293457 -6.998619556427002,8.461867332458496 -11.371281623840332,11.993928909301758 l-3.4373488426208496,2.775191068649292 h-75.38563537597656 l-3.431447744369507,-2.775191068649292 c-7.482503890991211,-6.031762599945068 -13.368780136108398,-13.501869201660156 -17.41098403930664,-21.82744026184082 H45.89918613433838 c0,9.969807624816895 3.8091137409210205,19.052249908447266 10.064203262329102,25.953977584838867 C48.31860828399658,141.02542877197266 33.95845699310303,153.08026123046875 16.479612350463867,157.778076171875 v33.615478515625 c26.18581199645996,7.043822765350342 45.45856857299805,30.527099609375 45.45856857299805,58.502296447753906 v32.70781326293945 h36.087738037109375 l5.15159797668457,-12.362214088439941 h81.56696319580078 v12.362214088439941 h36.09069061279297 l28.09184455871582,-67.4542465209961 l0,0 c3.6645383834838867,-9.450728416442871 5.570570468902588,-19.655426025390625 5.570570468902588,-30.37340545654297 c0,-17.074527740478516 -5.133894443511963,-32.94850540161133 -13.920525550842285,-46.28218078613281 c1.0503830909729004,-1.4151443243026733 2.162726879119873,-2.746192216873169 3.38128924369812,-3.9003467559814453 c0.03540617227554321,0.12179522216320038 0.07081233710050583,0.24069055914878845 0.11211953312158585,0.35378608107566833 c1.782110571861267,5.437285900115967 6.089860916137695,10.230796813964844 11.241458892822266,12.507208824157715 c4.284146308898926,1.887825846672058 8.93710708618164,1.9545233249664307 13.07372760772705,0.17689305543899536 C274.5050210952759,144.9924774169922 277.8951578140259,139.42469787597656 277.2224283218384,133.09134674072266 zM76.95334720611572,162.54258728027344 c-4.670663833618164,0 -8.456172943115234,-3.717653751373291 -8.456172943115234,-8.308173179626465 c0,-4.590519428253174 3.7855095863342285,-8.31107234954834 8.456172943115234,-8.31107234954834 c4.667713165283203,0 8.45322322845459,3.720553398132324 8.45322322845459,8.31107234954834 C85.40657138824463,158.82493591308594 81.6181116104126,162.54258728027344 76.95334720611572,162.54258728027344 zM263.3963327407837,136.44651794433594 c-0.587152361869812,0.25229009985923767 -1.5283663272857666,0.5161797404289246 -2.988870859146118,-0.1275949776172638 c-1.9532403945922852,-0.8612661957740784 -3.8091137409210205,-2.966583251953125 -4.517236709594727,-5.121198654174805 c-0.2507937252521515,-0.7568701505661011 -0.39241838455200195,-1.5659384727478027 -0.4396266043186188,-2.3924059867858887 c0.973669707775116,-0.0753970518708229 1.9060322046279907,-0.03189874812960625 2.829543113708496,0.15949374437332153 c4.511336326599121,0.9279635548591614 6.411467552185059,3.7321529388427734 6.585547924041748,5.387988090515137 C264.94241428375244,135.0806655883789 264.8184823989868,135.83463287353516 263.3963327407837,136.44651794433594 z" id="svg_3"/></g></g></svg>