<svg xmlns="http://www.w3.org/2000/svg" xmlns:xlink="http://www.w3.org/1999/xlink" version="1.1" enable-background="new 0 0 64 64" xml:space="preserve" width="300" height="300"><rect id="backgroundrect" width="100%" height="100%" x="0" y="0" fill="none" stroke="none" class=""/><g class="currentLayer"><title>Layer 1</title><g id="svg_1" class=""><polygon points="242.4986508488655,216.96822357177734 233.47763949632645,226.56768035888672 224.46114474534988,216.96822357177734 224.46114474534988,187.99727630615234 153.82222872972488,204.68236541748047 76.32222110033035,187.27434539794922 76.32222110033035,216.96822357177734 67.30574160814285,226.56768035888672 58.28926211595535,216.96822357177734 58.28926211595535,183.22425079345703 23.60734874010086,175.4321060180664 23.60734874010086,271.0653762817383 277.18511325120926,271.0653762817383 277.18511325120926,175.5389175415039 242.4986508488655,183.7376937866211 " id="svg_2"/><circle cx="67.59616227046652" cy="206.7197503729475" r="3.9212424755096436" id="svg_3"/><circle cx="233.1963020250465" cy="206.7197503729475" r="3.9212424755096436" id="svg_4"/><path d="M246.58260470628738,74.24541473388672 C238.03806430101395,51.84664535522461 198.87738925218582,35.387474060058594 150.396233856678,35.387474060058594 s-87.64636993408203,16.459169387817383 -96.19092559814453,38.85793685913086 H14.26415091753006 v90.06744384765625 l139.5580596923828,31.353343963623047 L286.528313934803,164.3128433227539 V74.24541473388672 H246.58260470628738 zM68.13615542650223,74.24541473388672 C77.95581179857254,58.730987548828125 111.59858828783035,46.9093017578125 150.396233856678,46.9093017578125 s72.43588256835938,11.821685791015625 82.26461791992188,27.33610725402832 H68.13615542650223 z" id="svg_5"/></g></g></svg>